<svg xmlns="http://www.w3.org/2000/svg" version="1.1" width="1181" height="1181" viewBox="0 0 1181 1181">
<defs><clipPath id="circleClip__auto"><circle cx="590.5" cy="590.5" r="590.5"></circle></clipPath></defs><g clip-path="url(#circleClip__auto)">
<path d="M0 0 C22.44 0 44.88 0 68 0 C68 59.07 68 118.14 68 179 C70.97 174.71 73.94 170.42 77 166 C80.2578125 162.38671875 80.2578125 162.38671875 83.125 159.6875 C87.07659058 155.89546891 90.80889969 152.03032172 94.359375 147.859375 C96.78602447 145.10917227 99.41486231 142.57611823 102.02734375 140.00390625 C104.57337829 137.41753849 106.92021557 134.6846472 109.28515625 131.93359375 C111.50169397 129.43430862 113.87162281 127.11718116 116.25390625 124.77734375 C118.06477643 122.93406426 119.75321354 121.02177201 121.4375 119.0625 C124.47679651 115.53365237 127.71016847 112.26994973 131.02734375 109.00390625 C133.57337829 106.41753849 135.92021557 103.6846472 138.28515625 100.93359375 C140.50169397 98.43430862 142.87162281 96.11718116 145.25390625 93.77734375 C147.06477643 91.93406426 148.75321354 90.02177201 150.4375 88.0625 C153.47679651 84.53365237 156.71016847 81.26994973 160.02734375 78.00390625 C162.57337829 75.41753849 164.92021557 72.6846472 167.28515625 69.93359375 C169.50169397 67.43430862 171.87162281 65.11718116 174.25390625 62.77734375 C176.06477643 60.93406426 177.75321354 59.02177201 179.4375 57.0625 C182.47679651 53.53365237 185.71016847 50.26994973 189.02734375 47.00390625 C191.57337829 44.41753849 193.92021557 41.6846472 196.28515625 38.93359375 C198.50169397 36.43430862 200.87162281 34.11718116 203.25390625 31.77734375 C205.06477643 29.93406426 206.75321354 28.02177201 208.4375 26.0625 C211.4743844 22.53645301 214.70488881 19.27507079 218.01953125 16.01171875 C220.56050099 13.43065481 222.91924065 10.7180166 225.26171875 7.95703125 C226.12216797 6.98830078 226.12216797 6.98830078 227 6 C227.68632004 5.14634354 228.37264008 4.29268707 229.07975769 3.41316223 C232.84591881 0.3009692 235.79176078 0.32558316 240.4621582 0.43237305 C241.721464 0.43127785 241.721464 0.43127785 243.00621033 0.43016052 C245.77173239 0.43363452 248.5355547 0.47248554 251.30078125 0.51171875 C253.22176697 0.52104757 255.1427646 0.52816336 257.06376648 0.53315735 C262.11273203 0.55222168 267.1609751 0.60131781 272.20965576 0.65667725 C277.36428046 0.70788179 282.51902224 0.73067398 287.67382812 0.75585938 C297.78286901 0.80943693 307.89137436 0.89474309 318 1 C317.04605712 2.1143123 316.09191733 3.22845603 315.13769531 4.3425293 C314.60638 4.9629863 314.0750647 5.5834433 313.52764893 6.22270203 C307.72584428 12.9726401 301.66344346 19.38311191 295.33203125 25.63671875 C293.31703555 27.67871607 291.42360852 29.75658286 289.5625 31.9375 C286.69827645 35.28925096 283.63665907 38.40556417 280.5 41.5 C277.38420877 44.57390527 274.34122762 47.66702145 271.5 51 C268.2176661 54.85043015 264.64745151 58.38145579 261.04907227 61.93139648 C257.79999393 65.15366448 254.77556137 68.49340645 251.80859375 71.97265625 C248.82349884 75.31879936 245.59117232 78.41593952 242.40234375 81.56640625 C240.36285627 83.63242365 238.444922 85.73005549 236.5625 87.9375 C233.69827645 91.28925096 230.63665907 94.40556417 227.5 97.5 C224.38420877 100.57390527 221.34122762 103.66702145 218.5 107 C215.2176661 110.85043015 211.64745151 114.38145579 208.04907227 117.93139648 C204.79999393 121.15366448 201.77556137 124.49340645 198.80859375 127.97265625 C195.82349884 131.31879936 192.59117232 134.41593952 189.40234375 137.56640625 C187.36285627 139.63242365 185.444922 141.73005549 183.5625 143.9375 C180.69827645 147.28925096 177.63665907 150.40556417 174.5 153.5 C170.78473613 157.16531914 167.26614883 160.92167474 163.88671875 164.8984375 C160.62068694 168.5363777 157.06803416 171.89618204 153.55078125 175.2890625 C150.9333407 178.07084465 149.01940531 180.77462664 147 184 C147.37697021 184.48243164 147.75394043 184.96486328 148.14233398 185.46191406 C154.6592797 193.80725542 161.16117826 202.15772259 167.48828125 210.6484375 C170.81508203 215.10181084 174.19185194 219.5172872 177.5625 223.9375 C178.24940918 224.83831299 178.93631836 225.73912598 179.64404297 226.66723633 C181.05831834 228.5215703 182.47270758 230.37581742 183.88720703 232.22998047 C187.25997761 236.65191887 190.62989132 241.07603276 194 245.5 C195.33331861 247.25001122 196.66665197 249.0000112 198 250.75 C200.66666667 254.25 203.33333333 257.75 206 261.25 C206.66008057 262.11633057 207.32016113 262.98266113 208.00024414 263.87524414 C209.33286176 265.62435561 210.66538138 267.37354175 211.99780273 269.12280273 C215.34128471 273.5120164 218.68648738 277.89989822 222.03515625 282.28515625 C228.60379116 290.89087931 235.1453189 299.5145537 241.625 308.1875 C246.9787129 315.35171832 252.42337815 322.43718854 257.93310547 329.48193359 C262.27676747 335.04443628 266.53037296 340.66879224 270.75170898 346.32446289 C274.51902804 351.36949808 278.34493334 356.3665336 282.19140625 361.3515625 C293.03218759 375.41549419 303.72535591 389.59091796 314.359375 403.81152344 C315.87977529 405.83962882 317.4067065 407.86254566 318.9375 409.8828125 C319.36683838 410.45056396 319.79617676 411.01831543 320.23852539 411.60327148 C321.3436638 413.0635124 322.45102618 414.52206946 323.55859375 415.98046875 C325 418 325 418 325 419 C314.17830487 419.46590365 303.35903504 419.81995483 292.52931118 420.03624344 C287.49841285 420.14013227 282.47442686 420.28061985 277.44750977 420.50878906 C242.23439686 422.06571986 242.23439686 422.06571986 234.1862793 414.79516602 C230.7739206 410.74902218 228.41069769 406.44916019 226.27552795 401.62547302 C224.09551089 397.1382519 220.99071573 393.35740164 217.9375 389.4375 C216.77293043 387.86393375 215.61223303 386.28748747 214.45703125 384.70703125 C213.88549316 383.92924316 213.31395508 383.15145508 212.72509766 382.35009766 C211.00672941 380.00916747 209.29038728 377.66676188 207.57421875 375.32421875 C201.38074104 366.88120248 195.11622392 358.50124161 188.75 350.1875 C183.91466674 343.8726991 179.15969728 337.52263229 174.57617188 331.02294922 C171.54190958 326.72863226 168.41468163 322.51149222 165.25 318.3125 C160.84092667 312.46219037 156.46697487 306.58780767 152.125 300.6875 C151.53936279 299.89182617 150.95372559 299.09615234 150.3503418 298.27636719 C147.98484161 295.06107393 145.62065671 291.84481656 143.25732422 288.62792969 C136.09846891 278.88477409 128.89751241 269.17601389 121.62988281 259.51367188 C116.56215341 252.76906181 111.55025632 245.98453632 106.56640625 239.17773438 C104.30139151 236.09030357 102.0393686 233.04784602 99.60546875 230.08984375 C98 228 98 228 98 226 C97.54847156 226.40607892 97.09694311 226.81215784 96.63173199 227.23054218 C92.77211465 230.65890148 88.85192753 233.86062287 84.70478821 236.93632507 C75.86264608 243.97965631 68.69864108 250.72312402 67.11532593 262.25479126 C66.15772026 271.28420069 66.41656807 280.38696115 66.66879821 289.44757295 C66.77325556 294.01567182 66.7562979 298.58344778 66.75325012 303.1525116 C66.76542602 311.77071267 66.88381516 320.3839086 67.04221755 329.00052804 C67.21749718 338.82399042 67.27158306 348.64701517 67.31644666 358.47180331 C67.41125793 378.65089868 67.67112011 398.82326849 68 419 C45.56 419 23.12 419 0 419 C0 280.73 0 142.46 0 0 Z " fill="#FDFDFD" transform="translate(252,362)" data-index="1" style="fill: rgb(252, 252, 252); opacity: 1;"></path>
<path d="M0 0 C22.44 0 44.88 0 68 0 C68.02261771 21.4019225 68.04102033 42.80383524 68.05181217 64.20576668 C68.05695732 74.14418085 68.06396593 84.08258704 68.07543945 94.02099609 C68.08544087 102.68842763 68.09186637 111.35585337 68.09408849 120.02329051 C68.09538636 124.60795297 68.09841331 129.19259888 68.10573006 133.77725601 C68.11257658 138.10279438 68.1145996 142.42830957 68.11310768 146.75385284 C68.11338016 148.33150484 68.11533363 149.9091577 68.11920547 151.48680496 C68.14147251 161.03779782 67.82749637 170.47925906 67 180 C67.59425781 179.11699219 68.18851563 178.23398437 68.80078125 177.32421875 C73.83420189 169.98625382 79.03429857 163.62940531 85.46875 157.45703125 C88.27112618 154.73682351 90.79175333 151.86216973 93.32421875 148.89453125 C95.76532539 146.134772 98.402906 143.58789024 101.02734375 141.00390625 C103.57337829 138.41753849 105.92021557 135.6846472 108.28515625 132.93359375 C110.50169397 130.43430862 112.87162281 128.11718116 115.25390625 125.77734375 C117.06477643 123.93406426 118.75321354 122.02177201 120.4375 120.0625 C123.47679651 116.53365237 126.71016847 113.26994973 130.02734375 110.00390625 C132.57337829 107.41753849 134.92021557 104.6846472 137.28515625 101.93359375 C139.50169397 99.43430862 141.87162281 97.11718116 144.25390625 94.77734375 C146.06477643 92.93406426 147.75321354 91.02177201 149.4375 89.0625 C152.47679651 85.53365237 155.71016847 82.26994973 159.02734375 79.00390625 C161.57337829 76.41753849 163.92021557 73.6846472 166.28515625 70.93359375 C168.50169397 68.43430862 170.87162281 66.11718116 173.25390625 63.77734375 C175.06477643 61.93406426 176.75321354 60.02177201 178.4375 58.0625 C180.85617779 55.25423653 183.35899683 52.60029407 186 50 C188.62040609 47.41990785 191.10323412 44.78896393 193.5 42 C196.51641923 38.48998489 199.73095132 35.24948724 203.02734375 32.00390625 C205.57337829 29.41753849 207.92021557 26.6846472 210.28515625 23.93359375 C212.49925361 21.43706027 214.86634043 19.12231891 217.24609375 16.78515625 C219.66426194 14.32390266 221.89833503 11.72091653 224.12890625 9.08984375 C224.74636719 8.40019531 225.36382813 7.71054687 226 7 C226.39393259 6.50742895 226.78786518 6.0148579 227.19373512 5.50736046 C229.87516219 2.42354255 231.82433166 0.63346528 235.98641968 0.2784729 C237.51613638 0.26123328 239.0464506 0.2766953 240.57568359 0.31884766 C241.83520844 0.31753342 241.83520844 0.31753342 243.12017822 0.31619263 C245.88056248 0.32035472 248.63848077 0.36693865 251.3984375 0.4140625 C253.31798983 0.42525961 255.23755937 0.43379736 257.15713501 0.43978882 C262.19801564 0.46264665 267.23785125 0.52154366 272.27832031 0.5880127 C277.4262885 0.64950096 282.57442632 0.67681781 287.72265625 0.70703125 C297.81556213 0.77128982 307.90769401 0.87363246 318 1 C317.05615565 2.10468004 316.11180064 3.20892378 315.16723633 4.31298828 C314.37848869 5.23544846 314.37848869 5.23544846 313.57380676 6.17654419 C307.35695365 13.37956123 300.81279613 20.25169569 294.0390625 26.9296875 C292.1461065 28.85165432 290.37658837 30.82456243 288.625 32.875 C285.737852 36.24557743 282.65753002 39.38503864 279.5 42.5 C276.38420505 45.57390191 273.34122742 48.66702168 270.5 52 C267.2176661 55.85043015 263.64745151 59.38145579 260.04907227 62.93139648 C256.79999393 66.15366448 253.77556137 69.49340645 250.80859375 72.97265625 C247.82349884 76.31879936 244.59117232 79.41593952 241.40234375 82.56640625 C239.36285627 84.63242365 237.444922 86.73005549 235.5625 88.9375 C232.69827645 92.28925096 229.63665907 95.40556417 226.5 98.5 C223.38420877 101.57390527 220.34122762 104.66702145 217.5 108 C214.2169922 111.85122069 210.64595488 115.3828886 207.046875 118.93359375 C204.41976442 121.53905232 201.90006916 124.18453425 199.5 127 C196.2176661 130.85043015 192.64745151 134.38145579 189.04907227 137.93139648 C185.79999393 141.15366448 182.77556137 144.49340645 179.80859375 147.97265625 C176.82349884 151.31879936 173.59117232 154.41593952 170.40234375 157.56640625 C167.77359727 160.2293478 165.35030181 163.01244393 162.92578125 165.859375 C159.61276731 169.54199496 156.01611931 172.94813067 152.453125 176.38671875 C150.17948614 178.80879581 148.57353981 181.08895136 147 184 C147.53625 184.69480469 148.0725 185.38960937 148.625 186.10546875 C156.08837033 195.79066479 163.49713292 205.51713442 170.90332031 215.24609375 C174.26764589 219.66500299 177.63389195 224.08244851 181 228.5 C182.33334315 230.24999252 183.66667647 231.99999253 185 233.75 C185.66 234.61625 186.32 235.4825 187 236.375 C189 239 191 241.625 193 244.25 C193.66008057 245.11633057 194.32016113 245.98266113 195.00024414 246.87524414 C196.33286176 248.62435561 197.66538138 250.37354175 198.99780273 252.12280273 C202.34128471 256.5120164 205.68648738 260.89989822 209.03515625 265.28515625 C215.60379116 273.89087931 222.1453189 282.5145537 228.625 291.1875 C233.9787129 298.35171832 239.42337815 305.43718854 244.93310547 312.48193359 C249.27676747 318.04443628 253.53037296 323.66879224 257.75170898 329.32446289 C261.51902804 334.36949808 265.34493334 339.3665336 269.19140625 344.3515625 C278.72145487 356.71505814 288.13712406 369.16423479 297.47949219 381.66992188 C301.7351155 387.35159577 306.0644695 392.97081399 310.4375 398.5625 C325 417.18904772 325 417.18904772 325 419 C314.19577274 419.48946283 303.39423066 419.86107437 292.58112335 420.08805561 C287.55771488 420.19708906 282.54195304 420.34448389 277.52294922 420.58422852 C245.16206321 422.09044574 245.16206321 422.09044574 236.63232422 416.98382568 C231.45452923 412.25827053 228.1248501 406.8361932 225.20263672 400.51242065 C223.51777446 396.99258572 221.35467349 394.10541354 219 391 C218.22532583 389.908967 217.45406652 388.81549466 216.6875 387.71875 C213.24032937 382.89271112 209.60785167 378.20627351 206 373.5 C201.08052234 367.0817792 196.23715153 360.63295449 191.57714844 354.02416992 C188.54238888 349.72956752 185.41499646 345.51190993 182.25 341.3125 C177.84092667 335.46219037 173.46697487 329.58780767 169.125 323.6875 C168.53936279 322.89182617 167.95372559 322.09615234 167.3503418 321.27636719 C164.98484161 318.06107393 162.62065671 314.84481656 160.25732422 311.62792969 C153.71264321 302.72066133 147.14152645 293.8353726 140.5 285 C132.63989969 274.54353107 124.88215605 264.0133944 117.14160156 253.46826172 C115.88924244 251.76241745 114.63639677 250.05693027 113.38305664 248.35180664 C112.21445955 246.76196925 111.04688878 245.17137667 109.88061523 243.57983398 C106.45388734 238.91880518 102.93292845 234.35524463 99.30053711 229.85205078 C98 228 98 228 98 226 C97.54847156 226.40607892 97.09694311 226.81215784 96.63173199 227.23054218 C92.77211465 230.65890148 88.85192753 233.86062287 84.70478821 236.93632507 C75.86264608 243.97965631 68.69864108 250.72312402 67.11532593 262.25479126 C66.15772026 271.28420069 66.41656807 280.38696115 66.66879821 289.44757295 C66.77325556 294.01567182 66.7562979 298.58344778 66.75325012 303.1525116 C66.76542602 311.77071267 66.88381516 320.3839086 67.04221755 329.00052804 C67.21749718 338.82399042 67.27158306 348.64701517 67.31644666 358.47180331 C67.41125793 378.65089868 67.67112011 398.82326849 68 419 C45.56 419 23.12 419 0 419 C0 280.73 0 142.46 0 0 Z " fill="#FDFDFD" transform="translate(648,362)" data-index="2" style="opacity: 1; fill: rgb(252, 252, 252);"></path>
</g></svg>